#Comment line ignore any data following # character 
#Hierarchical Translation and Rotation (.htr) file 
[Header]	
#Header keywords are followed by a single value 
FileType HTR		#Single word string
DataType HTRS		#Translation followed by rotation and scale data
FileVersion 1		#integer
NumSegments 84		#integer
NumFrames 2		#integer
DataFrameRate 30		#integer, data frame rate in this file
EulerRotationOrder ZYX
CalibrationUnits mm
RotationUnits Degrees
GlobalAxisofGravity Y
BoneLengthAxis Y
ScaleFactor 1.00
[SegmentNames&Hierarchy]
#CHILD	PARENT
MASTER GLOBAL
root MASTER
chest root
L_mid_tent01 root
R_mid_tent01 root
spine01 root
Bip01_Neck chest
L_humerus chest
R_humerus chest
weapon_bone chest
Bip01_Head Bip01_Neck
eye_left_bone Bip01_Head
eye_right_bone Bip01_Head
L_forearm L_humerus
L_front_hand L_forearm
L_weapon_bone L_forearm
L_front_hand01_01 L_front_hand
L_front_hand02_01 L_front_hand
L_front_hand03_01 L_front_hand
L_front_hand01_02 L_front_hand01_01
L_front_hand02_02 L_front_hand02_01
L_front_hand03_02 L_front_hand03_01
R_forearm R_humerus
R_front_hand R_forearm
R_weapon_bone R_forearm
R_front_hand01_01 R_front_hand
R_front_hand02_01 R_front_hand
R_front_hand03_01 R_front_hand
R_front_hand01_02 R_front_hand01_01
R_front_hand02_02 R_front_hand02_01
R_front_hand03_02 R_front_hand03_01
null_rope01_connect L_mid_tent01
Rope1_Seg01 null_rope01_connect
Rope1_Seg02 Rope1_Seg01
Rope1_Seg03 Rope1_Seg02
Rope1_Seg04 Rope1_Seg03
Rope1_Seg05 Rope1_Seg04
Rope1_Seg06 Rope1_Seg05
Rope1_Seg07 Rope1_Seg06
Rope1_Seg09 Rope1_Seg07
L_mid_hand01 Rope1_Seg09
L_mid_hand02 Rope1_Seg09
L_mid_hand03 Rope1_Seg09
null_rope02_connect R_mid_tent01
Rope2_Seg01 null_rope02_connect
Rope2_Seg02 Rope2_Seg01
Rope2_Seg03 Rope2_Seg02
Rope2_Seg04 Rope2_Seg03
Rope2_Seg05 Rope2_Seg04
Rope2_Seg06 Rope2_Seg05
Rope2_Seg07 Rope2_Seg06
Rope2_Seg09 Rope2_Seg07
R_mid_hand01 Rope2_Seg09
R_mid_hand02 Rope2_Seg09
R_mid_hand03 Rope2_Seg09
spine02 spine01
spine03 spine02
pelvis spine03
null_rope03_connect pelvis
null_rope04_connect pelvis
Rope3_Seg01 null_rope03_connect
Rope3_Seg02 Rope3_Seg01
Rope3_Seg03 Rope3_Seg02
Rope3_Seg04 Rope3_Seg03
Rope3_Seg05 Rope3_Seg04
Rope3_Seg06 Rope3_Seg05
Rope3_Seg07 Rope3_Seg06
Rope3_Seg08 Rope3_Seg07
Rope3_Seg09 Rope3_Seg08
R_rear_hand01 Rope3_Seg09
R_rear_hand02 Rope3_Seg09
R_rear_hand03 Rope3_Seg09
Rope4_Seg01 null_rope04_connect
Rope4_Seg02 Rope4_Seg01
Rope4_Seg03 Rope4_Seg02
Rope4_Seg04 Rope4_Seg03
Rope4_Seg05 Rope4_Seg04
Rope4_Seg06 Rope4_Seg05
Rope4_Seg07 Rope4_Seg06
Rope4_Seg08 Rope4_Seg07
Rope4_Seg09 Rope4_Seg08
L_rear_hand01 Rope4_Seg09
L_rear_hand02 Rope4_Seg09
L_rear_hand03 Rope4_Seg09
[BasePosition]
#SegmentName Tx, Ty, Tz, Rx, Ry, Rz, BoneLength
MASTER 0.000000 0.000000 0.000000 -90.000000 0.000000 0.000000 10.000000 
root 0.000000 0.000000 0.000000 0.000000 0.000000 0.000000 10.000000 
chest 0.000000 0.000000 0.000000 0.000000 0.000000 0.000000 10.000000 
L_mid_tent01 0.000000 0.000000 0.000000 0.000000 0.000000 0.000000 10.000000 
R_mid_tent01 0.000000 0.000000 0.000000 0.000000 0.000000 0.000000 10.000000 
spine01 0.000000 0.000000 0.000000 0.000000 0.000000 0.000000 10.000000 
Bip01_Neck 0.000000 0.000000 0.000000 0.000000 0.000000 0.000000 10.000000 
L_humerus 0.000000 0.000000 0.000000 0.000000 0.000000 0.000000 10.000000 
R_humerus 0.000000 0.000000 0.000000 0.000000 0.000000 0.000000 10.000000 
weapon_bone 0.000000 0.000000 0.000000 0.000000 0.000000 0.000000 10.000000 
Bip01_Head 0.000000 0.000000 0.000000 0.000000 0.000000 0.000000 10.000000 
eye_left_bone 0.000000 0.000000 0.000000 0.000000 0.000000 0.000000 10.000000 
eye_right_bone 0.000000 0.000000 0.000000 0.000000 0.000000 0.000000 10.000000 
L_forearm 0.000000 0.000000 0.000000 0.000000 0.000000 0.000000 10.000000 
L_front_hand 0.000000 0.000000 0.000000 0.000000 0.000000 0.000000 10.000000 
L_weapon_bone 0.000000 0.000000 0.000000 0.000000 0.000000 0.000000 10.000000 
L_front_hand01_01 0.000000 0.000000 0.000000 0.000000 0.000000 0.000000 10.000000 
L_front_hand02_01 0.000000 0.000000 0.000000 0.000000 0.000000 0.000000 10.000000 
L_front_hand03_01 0.000000 0.000000 0.000000 0.000000 0.000000 0.000000 10.000000 
L_front_hand01_02 0.000000 0.000000 0.000000 0.000000 0.000000 0.000000 10.000000 
L_front_hand02_02 0.000000 0.000000 0.000000 0.000000 0.000000 0.000000 10.000000 
L_front_hand03_02 0.000000 0.000000 0.000000 0.000000 0.000000 0.000000 10.000000 
R_forearm 0.000000 0.000000 0.000000 0.000000 0.000000 0.000000 10.000000 
R_front_hand 0.000000 0.000000 0.000000 0.000000 0.000000 0.000000 10.000000 
R_weapon_bone 0.000000 0.000000 0.000000 0.000000 0.000000 0.000000 10.000000 
R_front_hand01_01 0.000000 0.000000 0.000000 0.000000 0.000000 0.000000 10.000000 
R_front_hand02_01 0.000000 0.000000 0.000000 0.000000 0.000000 0.000000 10.000000 
R_front_hand03_01 0.000000 0.000000 0.000000 0.000000 0.000000 0.000000 10.000000 
R_front_hand01_02 0.000000 0.000000 0.000000 0.000000 0.000000 0.000000 10.000000 
R_front_hand02_02 0.000000 0.000000 0.000000 0.000000 0.000000 0.000000 10.000000 
R_front_hand03_02 0.000000 0.000000 0.000000 0.000000 0.000000 0.000000 10.000000 
null_rope01_connect 0.000000 0.000000 0.000000 0.000000 0.000000 0.000000 10.000000 
Rope1_Seg01 0.000000 0.000000 0.000000 0.000000 0.000000 0.000000 10.000000 
Rope1_Seg02 0.000000 0.000000 0.000000 0.000000 0.000000 0.000000 10.000000 
Rope1_Seg03 0.000000 0.000000 0.000000 0.000000 0.000000 0.000000 10.000000 
Rope1_Seg04 0.000000 0.000000 0.000000 0.000000 0.000000 0.000000 10.000000 
Rope1_Seg05 0.000000 0.000000 0.000000 0.000000 0.000000 0.000000 10.000000 
Rope1_Seg06 0.000000 0.000000 0.000000 0.000000 0.000000 0.000000 10.000000 
Rope1_Seg07 0.000000 0.000000 0.000000 0.000000 0.000000 0.000000 10.000000 
Rope1_Seg09 0.000000 0.000000 0.000000 0.000000 0.000000 0.000000 10.000000 
L_mid_hand01 0.000000 0.000000 0.000000 0.000000 0.000000 0.000000 10.000000 
L_mid_hand02 0.000000 0.000000 0.000000 0.000000 0.000000 0.000000 10.000000 
L_mid_hand03 0.000000 0.000000 0.000000 0.000000 0.000000 0.000000 10.000000 
null_rope02_connect 0.000000 0.000000 0.000000 0.000000 0.000000 0.000000 10.000000 
Rope2_Seg01 0.000000 0.000000 0.000000 0.000000 0.000000 0.000000 10.000000 
Rope2_Seg02 0.000000 0.000000 0.000000 0.000000 0.000000 0.000000 10.000000 
Rope2_Seg03 0.000000 0.000000 0.000000 0.000000 0.000000 0.000000 10.000000 
Rope2_Seg04 0.000000 0.000000 0.000000 0.000000 0.000000 0.000000 10.000000 
Rope2_Seg05 0.000000 0.000000 0.000000 0.000000 0.000000 0.000000 10.000000 
Rope2_Seg06 0.000000 0.000000 0.000000 0.000000 0.000000 0.000000 10.000000 
Rope2_Seg07 0.000000 0.000000 0.000000 0.000000 0.000000 0.000000 10.000000 
Rope2_Seg09 0.000000 0.000000 0.000000 0.000000 0.000000 0.000000 10.000000 
R_mid_hand01 0.000000 0.000000 0.000000 0.000000 0.000000 0.000000 10.000000 
R_mid_hand02 0.000000 0.000000 0.000000 0.000000 0.000000 0.000000 10.000000 
R_mid_hand03 0.000000 0.000000 0.000000 0.000000 0.000000 0.000000 10.000000 
spine02 0.000000 0.000000 0.000000 0.000000 0.000000 0.000000 10.000000 
spine03 0.000000 0.000000 0.000000 0.000000 0.000000 0.000000 10.000000 
pelvis 0.000000 0.000000 0.000000 0.000000 0.000000 0.000000 10.000000 
null_rope03_connect 0.000000 0.000000 0.000000 0.000000 0.000000 0.000000 10.000000 
null_rope04_connect 0.000000 0.000000 0.000000 0.000000 0.000000 0.000000 10.000000 
Rope3_Seg01 0.000000 0.000000 0.000000 0.000000 0.000000 0.000000 10.000000 
Rope3_Seg02 0.000000 0.000000 0.000000 0.000000 0.000000 0.000000 10.000000 
Rope3_Seg03 0.000000 0.000000 0.000000 0.000000 0.000000 0.000000 10.000000 
Rope3_Seg04 0.000000 0.000000 0.000000 0.000000 0.000000 0.000000 10.000000 
Rope3_Seg05 0.000000 0.000000 0.000000 0.000000 0.000000 0.000000 10.000000 
Rope3_Seg06 0.000000 0.000000 0.000000 0.000000 0.000000 0.000000 10.000000 
Rope3_Seg07 0.000000 0.000000 0.000000 0.000000 0.000000 0.000000 10.000000 
Rope3_Seg08 0.000000 0.000000 0.000000 0.000000 0.000000 0.000000 10.000000 
Rope3_Seg09 0.000000 0.000000 0.000000 0.000000 0.000000 0.000000 10.000000 
R_rear_hand01 0.000000 0.000000 0.000000 0.000000 0.000000 0.000000 10.000000 
R_rear_hand02 0.000000 0.000000 0.000000 0.000000 0.000000 0.000000 10.000000 
R_rear_hand03 0.000000 0.000000 0.000000 0.000000 0.000000 0.000000 10.000000 
Rope4_Seg01 0.000000 0.000000 0.000000 0.000000 0.000000 0.000000 10.000000 
Rope4_Seg02 0.000000 0.000000 0.000000 0.000000 0.000000 0.000000 10.000000 
Rope4_Seg03 0.000000 0.000000 0.000000 0.000000 0.000000 0.000000 10.000000 
Rope4_Seg04 0.000000 0.000000 0.000000 0.000000 0.000000 0.000000 10.000000 
Rope4_Seg05 0.000000 0.000000 0.000000 0.000000 0.000000 0.000000 10.000000 
Rope4_Seg06 0.000000 0.000000 0.000000 0.000000 0.000000 0.000000 10.000000 
Rope4_Seg07 0.000000 0.000000 0.000000 0.000000 0.000000 0.000000 10.000000 
Rope4_Seg08 0.000000 0.000000 0.000000 0.000000 0.000000 0.000000 10.000000 
Rope4_Seg09 0.000000 0.000000 0.000000 0.000000 0.000000 0.000000 10.000000 
L_rear_hand01 0.000000 0.000000 0.000000 0.000000 0.000000 0.000000 10.000000 
L_rear_hand02 0.000000 0.000000 0.000000 0.000000 0.000000 0.000000 10.000000 
L_rear_hand03 0.000000 0.000000 0.000000 0.000000 0.000000 0.000000 10.000000 
#Beginning of Data. Separated by tabs
#Fr	Tx	Ty	Tz	Rx	Ry	Rz	SF
[MASTER]
25 0.000000 0.000000 0.000000 0.001660 0.001660 0.001660 0.000000
26 0.000000 0.000000 0.000000 0.001660 0.001660 0.001660 0.000000
[root]
25 -29.651730 -56.454155 1501.658325 -89.129936 -39.543877 -87.270309 1503.011597
26 -29.446777 -56.479839 1501.587158 -86.934830 -39.380024 -87.565971 1502.937500
[chest]
25 -84.512650 -34.090519 0.000000 -8.320755 -10.402410 173.352921 91.129311
26 -84.512650 -34.090519 0.000000 -7.436894 -8.663387 174.346573 91.129311
[L_mid_tent01]
25 27.299191 22.179106 -249.918701 3.862628 36.229202 81.347610 252.381699
26 27.299194 22.179106 -249.918701 3.862628 36.229202 81.347610 252.381699
[R_mid_tent01]
25 23.228794 24.509907 226.238495 160.432037 -47.061241 87.899765 228.744751
26 23.228794 24.509907 226.238495 160.432037 -47.061249 87.899780 228.744751
[spine01]
25 -0.361383 -0.195265 0.000000 0.002062 0.001122 32.879829 0.410763
26 -0.361383 -0.195265 0.000000 0.002062 0.001122 32.879829 0.410763
[Bip01_Neck]
25 165.484543 71.581718 0.000119 176.643677 -1.657967 43.431911 180.302734
26 165.484543 71.581718 0.000119 176.643677 -1.657967 43.431919 180.302734
[L_humerus]
25 -13.983130 -135.272980 -120.471481 156.317398 70.210068 -112.010254 181.680161
26 -13.983130 -135.272980 -120.471481 156.317398 70.210068 -112.010254 181.680161
[R_humerus]
25 -13.983309 -135.273102 125.287651 -172.382263 -66.903831 -92.553993 184.909012
26 -13.983309 -135.273102 125.287651 -172.382263 -66.903854 -92.554031 184.909012
[weapon_bone]
25 235.964890 -300.705902 0.000000 0.000000 -89.951546 -128.212341 382.234833
26 235.964890 -300.705902 0.000000 0.000000 -89.951546 -128.212341 382.234833
[Bip01_Head]
25 213.334137 186.021729 7.822194 9.647120 4.551737 -43.865147 283.154938
26 213.335190 186.018829 7.859764 4.894542 4.231121 -43.871689 283.154846
[eye_left_bone]
25 -24.626970 125.451866 -64.772606 0.000000 -90.000000 -99.840431 143.318359
26 -24.626970 125.451866 -64.772606 0.000000 -90.000000 -99.840431 143.318359
[eye_right_bone]
25 -24.626970 125.451866 64.327362 0.000000 -89.965736 80.156380 143.117676
26 -24.626970 125.451866 64.327362 0.000000 -90.000000 80.156387 143.117676
[L_forearm]
25 322.776093 0.000000 -0.000119 0.000396 -0.002314 -109.419975 322.776093
26 322.776093 0.000000 -0.000119 0.000396 -0.002314 -109.419975 322.776093
[L_front_hand]
25 241.149185 -0.042021 -3.300071 -178.667953 -1.835447 -27.422350 241.171753
26 241.149185 -0.042021 -3.300071 -178.667953 -1.835448 -27.422352 241.171753
[L_weapon_bone]
25 156.183838 0.000000 0.000000 0.000014 0.000007 0.000001 156.183838
26 156.183838 0.000000 0.000000 0.000014 0.000007 0.000001 156.183838
[L_front_hand01_01]
25 86.095154 20.947098 -0.655860 -0.335131 -0.500211 71.723793 88.609184
26 86.095154 20.947098 -0.655860 -0.342291 -0.495149 72.451691 88.609184
[L_front_hand02_01]
25 86.935165 -11.437475 24.513514 149.028946 -58.148323 -55.100948 91.046425
26 86.935165 -11.437475 24.513514 150.048462 -58.519798 -56.305637 91.046425
[L_front_hand03_01]
25 86.637497 -14.123976 -20.424902 -148.918823 56.366688 -56.764717 90.126129
26 86.637497 -14.123976 -20.424902 -149.869949 56.734921 -57.903400 90.126129
[L_front_hand01_02]
25 71.020905 -0.000179 0.000030 0.000321 -0.002325 -105.725533 71.020905
26 71.020905 -0.000179 0.000030 0.000322 -0.002325 -105.779320 71.020905
[L_front_hand02_02]
25 71.020927 -0.000119 0.000060 0.000321 -0.002325 -105.725533 71.020927
26 71.020927 -0.000119 0.000060 0.000322 -0.002325 -105.779320 71.020927
[L_front_hand03_02]
25 71.020905 -0.000060 0.000060 0.000321 -0.002325 -105.725533 71.020905
26 71.020905 -0.000060 0.000060 0.000322 -0.002325 -105.779320 71.020905
[R_forearm]
25 322.776428 -0.000060 0.000030 0.202103 0.065158 -108.062805 322.776428
26 322.776428 -0.000060 0.000030 0.202103 0.065158 -108.062820 322.776428
[R_front_hand]
25 238.847015 -0.006795 2.210259 -2.635298 -10.645461 -26.312506 238.857239
26 238.847015 -0.006795 2.210259 -2.635299 -10.645463 -26.312508 238.857239
[R_weapon_bone]
25 155.664093 0.002503 -0.000030 0.003487 0.001180 -90.988930 155.664078
26 155.664093 0.002503 -0.000030 0.003487 0.001180 -90.988930 155.664078
[R_front_hand01_01]
25 87.624611 14.231146 22.918642 -151.998260 -59.169334 58.688148 91.683487
26 87.624611 14.231146 22.918642 -153.375854 -59.587166 60.286903 91.683487
[R_front_hand02_01]
25 89.356956 14.367283 -19.491137 152.130127 57.525928 60.828327 92.579636
26 89.356956 14.367283 -19.491137 153.420532 57.944530 62.356834 92.579636
[R_front_hand03_01]
25 87.286232 -22.307278 -0.143439 0.147862 -0.431521 -74.042168 90.091743
26 87.286232 -22.307278 -0.143439 0.155221 -0.427320 -74.955528 90.091743
[R_front_hand01_02]
25 71.020905 0.000060 0.000119 0.002323 -0.000334 106.381714 71.020905
26 71.020905 0.000060 0.000119 0.002323 -0.000334 106.381729 71.020905
[R_front_hand02_02]
25 71.020844 -0.000030 -0.000119 0.002323 -0.000334 106.381714 71.020836
26 71.020844 -0.000030 -0.000119 0.002323 -0.000334 106.381729 71.020836
[R_front_hand03_02]
25 71.020905 0.000000 0.000030 0.002323 -0.000334 106.381714 71.020905
26 71.020905 0.000000 0.000030 0.002323 -0.000334 106.381729 71.020905
[null_rope01_connect]
25 328.732483 0.000000 -0.000238 -127.313225 -56.641346 177.200073 328.732483
26 328.732483 0.000000 -0.000238 -126.469284 -58.528587 175.917648 328.732483
[Rope1_Seg01]
25 -0.000002 -0.000003 0.000006 107.425453 -0.438286 -170.466858 0.000007
26 0.000000 0.000000 0.000000 108.532387 1.388058 -170.396118 0.000000
[Rope1_Seg02]
25 139.999863 -0.000179 0.000000 12.868777 -15.027275 -10.203605 139.999863
26 139.999863 -0.000179 0.000000 12.479842 -15.259918 -9.004449 139.999863
[Rope1_Seg03]
25 139.999924 0.000060 -0.000060 17.250488 -24.872309 -15.579557 139.999924
26 139.999924 0.000060 -0.000060 15.776706 -25.054302 -13.419253 139.999924
[Rope1_Seg04]
25 139.999924 -0.000060 -0.000119 4.706537 -31.413113 -0.978002 139.999924
26 139.999924 -0.000060 -0.000119 3.590376 -32.129414 0.301122 139.999924
[Rope1_Seg05]
25 139.999832 0.000119 -0.000060 -7.166149 -28.237101 14.292159 139.999832
26 139.999832 0.000119 -0.000060 -7.451278 -27.754786 13.621459 139.999832
[Rope1_Seg06]
25 139.999954 0.000119 -0.000060 -4.642622 -11.182213 3.450705 139.999954
26 139.999954 0.000119 -0.000060 -4.663480 -10.653811 3.071713 139.999954
[Rope1_Seg07]
25 139.999985 0.000060 0.000000 -3.047773 -5.507421 1.109212 139.999985
26 139.999985 0.000060 0.000000 -3.049257 -5.287915 0.979523 139.999985
[Rope1_Seg09]
25 121.602913 0.000119 -0.000089 -89.793175 -1.359789 0.847147 121.602913
26 121.602913 0.000119 -0.000089 -89.793175 -1.359789 0.847147 121.602913
[L_mid_hand01]
25 103.859421 1.038730 8.195221 130.544373 -67.584534 -38.866943 104.187431
26 103.859421 1.038730 8.195221 130.544373 -67.584534 -38.866943 104.187431
[L_mid_hand02]
25 105.572853 -4.139662 -10.864139 -168.923172 43.409309 -73.498886 106.211075
26 105.572853 -4.139662 -10.864139 -168.923172 43.409321 -73.498909 106.211075
[L_mid_hand03]
25 104.641464 17.579376 -3.913581 -6.012627 17.808174 74.893669 106.179977
26 104.641464 17.579376 -3.913581 -6.012628 17.808178 74.893677 106.179977
[null_rope02_connect]
25 328.732849 0.000179 -0.000119 -111.985176 36.637974 18.097752 328.732849
26 328.732849 0.000179 -0.000119 -113.042953 34.978703 16.699673 328.732849
[Rope2_Seg01]
25 -0.000143 0.000089 0.000000 -83.241394 28.976662 -16.684496 0.000169
26 -0.000153 0.000088 0.000000 -73.168098 24.867111 -14.408235 0.000176
[Rope2_Seg02]
25 139.999741 -0.000060 -0.000119 -11.607018 -2.781241 8.910104 139.999756
26 139.999741 -0.000060 -0.000119 -12.558873 -2.574442 9.881503 139.999756
[Rope2_Seg03]
25 140.000107 0.000030 0.000000 -11.461980 -7.574288 14.268598 140.000107
26 140.000107 0.000030 0.000000 -12.216405 -7.508721 15.661872 140.000107
[Rope2_Seg04]
25 139.999802 0.000000 -0.000060 -8.791194 -13.687490 18.693094 139.999802
26 139.999802 0.000000 -0.000060 -8.706209 -12.960588 19.138201 139.999802
[Rope2_Seg05]
25 139.999985 -0.000060 0.000119 -6.554523 -25.826960 23.793219 139.999985
26 139.999985 -0.000060 0.000119 -6.479676 -27.348833 23.895294 139.999985
[Rope2_Seg06]
25 139.999893 -0.000030 -0.000119 -0.210235 -20.888309 16.913351 139.999893
26 139.999893 -0.000030 -0.000119 -0.030177 -20.821789 15.877499 139.999893
[Rope2_Seg07]
25 139.999893 0.000060 -0.000060 2.585109 -8.280890 7.344055 139.999893
26 139.999893 0.000060 -0.000060 2.506362 -7.906746 6.725131 139.999893
[Rope2_Seg09]
25 121.338966 0.000089 -0.000060 33.793236 -1.359788 -0.847141 121.338966
26 121.338966 0.000089 -0.000060 33.793236 -1.359788 -0.847141 121.338966
[R_mid_hand01]
25 104.680779 11.144459 -10.335981 -16.212063 45.237247 70.462852 105.778534
26 104.680779 11.144459 -10.335981 -16.212065 45.237255 70.462868 105.778534
[R_mid_hand02]
25 104.070427 2.443552 8.231699 49.067387 -67.749794 39.286469 104.424065
26 104.070427 2.443552 8.231699 49.067390 -67.749802 39.286472 104.424065
[R_mid_hand03]
25 106.028137 -11.221827 -5.996406 -177.101105 15.551026 -76.585571 106.788818
26 106.028137 -11.221827 -5.996406 -177.101105 15.551029 -76.585594 106.788818
[spine02]
25 129.756927 0.001550 0.000119 0.360061 -4.044797 -12.915058 129.756927
26 129.756927 0.001550 0.000119 0.360061 -4.044798 -12.915060 129.756927
[spine03]
25 78.614067 0.081635 -4.899015 1.896495 3.831288 16.473045 78.766602
26 78.614067 0.081635 -4.899015 1.896495 3.831288 16.473051 78.766602
[pelvis]
25 169.435242 0.051022 0.000000 -0.060465 -0.180225 14.087930 169.435257
26 169.435242 0.051022 0.000000 -0.060465 -0.180225 14.087932 169.435257
[null_rope03_connect]
25 -1.257226 -2.466202 137.391083 64.820984 -85.936493 14.161619 137.418976
26 -1.257226 -2.466202 137.391083 54.225239 -84.124367 24.554832 137.418976
[null_rope04_connect]
25 -1.259640 -2.480268 -137.844437 64.820984 -85.936493 14.161619 137.872513
26 -1.259640 -2.480268 -137.844437 54.225239 -84.124367 24.554832 137.872513
[Rope3_Seg01]
25 0.000010 0.000038 -0.000114 -161.555939 -63.544132 -53.369137 0.000121
26 0.000010 0.000038 -0.000114 -171.720474 -68.702240 -45.410255 0.000121
[Rope3_Seg02]
25 139.999924 -0.000119 0.000060 6.080973 -14.837896 -13.306599 139.999924
26 139.999924 -0.000119 0.000060 3.955781 -11.927294 -12.609864 139.999924
[Rope3_Seg03]
25 139.999924 -0.000119 0.000119 3.756456 -6.211093 -4.063380 139.999924
26 139.999924 -0.000119 0.000119 4.258218 -7.303510 -5.270645 139.999924
[Rope3_Seg04]
25 139.999924 0.000119 0.000000 3.920767 -5.477808 -3.723861 139.999924
26 139.999924 0.000119 0.000000 3.052072 -4.552804 -3.358300 139.999924
[Rope3_Seg05]
25 139.999924 -0.000238 0.000060 22.948235 -15.010553 -10.287137 139.999924
26 139.999924 -0.000238 0.000060 5.878704 -9.318824 -11.245708 139.999924
[Rope3_Seg06]
25 139.999893 -0.000119 -0.000060 98.990944 -27.990625 -6.628347 139.999893
26 139.999893 -0.000119 -0.000060 161.742355 -20.924074 -24.060354 139.999893
[Rope3_Seg07]
25 139.999771 0.000060 -0.000119 17.877323 -1.496777 18.779501 139.999771
26 139.999771 0.000060 -0.000119 9.521421 8.148086 21.275377 139.999771
[Rope3_Seg08]
25 139.999985 -0.000060 0.000000 4.471045 2.327180 9.762375 139.999985
26 139.999985 -0.000060 0.000000 2.046848 5.770185 10.266335 139.999985
[Rope3_Seg09]
25 90.185997 -0.000179 -0.000060 89.793228 -1.359877 -0.847183 90.185997
26 90.185997 -0.000179 -0.000060 89.793228 -1.359877 -0.847183 90.185997
[R_rear_hand01]
25 103.366196 -6.073594 -10.757982 -177.714203 24.565960 -73.910950 104.101845
26 103.366196 -6.073594 -10.757982 -177.714203 24.565968 -73.910957 104.101845
[R_rear_hand02]
25 100.509819 12.039542 -7.992327 -12.874829 36.868488 72.167213 101.543350
26 100.509819 12.039542 -7.992327 -12.874833 36.868492 72.167229 101.543350
[R_rear_hand03]
25 101.539970 5.215704 5.435467 71.484581 -71.816628 21.513813 101.819031
26 101.539970 5.215704 5.435467 71.484634 -71.816643 21.513817 101.819031
[Rope4_Seg01]
25 0.000010 0.000002 -0.000006 61.098515 -27.950573 -126.388580 0.000011
26 0.000010 0.000000 0.000000 60.652443 -27.450726 -125.970886 0.000010
[Rope4_Seg02]
25 139.999985 0.000060 0.000119 1.088829 -13.961986 -6.223550 139.999985
26 139.999985 0.000060 0.000119 2.773251 -16.155222 -4.940157 139.999985
[Rope4_Seg03]
25 139.999924 0.000000 -0.000238 5.842689 -23.361261 -9.527458 139.999924
26 139.999924 0.000000 -0.000238 15.353068 -25.766476 -6.124390 139.999924
[Rope4_Seg04]
25 139.999985 0.000000 0.000119 113.393387 -23.702658 -4.998283 139.999985
26 139.999985 0.000000 0.000119 85.042778 -22.763020 3.528989 139.999985
[Rope4_Seg05]
25 139.999802 -0.000060 -0.000119 63.675732 -5.165844 21.663332 139.999802
26 139.999802 -0.000060 -0.000119 50.414165 -5.966840 16.755423 139.999802
[Rope4_Seg06]
25 139.999924 0.000000 0.000060 15.179867 16.529427 20.723921 139.999924
26 139.999924 0.000000 0.000060 26.006489 7.288845 24.981499 139.999924
[Rope4_Seg07]
25 139.999802 0.000000 0.000000 2.098633 11.509171 7.451656 139.999802
26 139.999802 0.000000 0.000000 5.753420 12.286523 12.471141 139.999802
[Rope4_Seg08]
25 139.999924 0.000000 0.000119 -0.943730 5.871814 3.494773 139.999924
26 139.999924 0.000000 0.000119 -0.152356 6.711649 5.404716 139.999924
[Rope4_Seg09]
25 90.185791 0.000060 0.000060 -135.617828 2.228885 0.850567 90.185791
26 90.185791 0.000060 0.000060 -135.617828 2.228885 0.850567 90.185791
[L_rear_hand01]
25 101.696655 -8.392275 -7.654577 -12.874829 -36.868488 107.832764 102.329041
26 101.696655 -8.392275 -7.654577 -12.874833 -36.868492 107.832779 102.329041
[L_rear_hand02]
25 102.726799 -1.568258 5.773216 71.484581 71.816628 158.486160 102.900848
26 102.726799 -1.568258 5.773216 71.484634 71.816643 158.486176 102.900848
[L_rear_hand03]
25 104.552910 9.721220 -10.420293 -177.714203 -24.565960 -106.089035 105.519653
26 104.552910 9.721220 -10.420293 -177.714203 -24.565968 -106.089043 105.519653
